<svg width="707" height="616" viewBox="0 0 707 616" fill="none" xmlns="http://www.w3.org/2000/svg">
<path d="M385.925 409.83C460.803 409.83 521.504 346.528 521.504 268.441C521.504 190.354 460.803 127.051 385.925 127.051C311.046 127.051 250.345 190.354 250.345 268.441C250.345 346.528 311.046 409.83 385.925 409.83Z" fill="#E6E6E6"/>
<path d="M360.275 189.721H136.019V191.25H360.275V189.721Z" fill="white"/>
<path d="M576.469 231.756H136.019V233.284H576.469V231.756Z" fill="white"/>
<path d="M440.889 382.316C365.727 382.316 304.577 318.546 304.577 240.163C304.577 161.779 365.727 98.0094 440.889 98.0094C516.052 98.0094 577.202 161.779 577.202 240.163C577.202 318.546 516.052 382.316 440.889 382.316ZM440.889 99.5379C366.535 99.5379 306.043 162.622 306.043 240.163C306.043 317.704 366.535 380.788 440.889 380.788C515.244 380.788 575.736 317.704 575.736 240.163C575.736 162.622 515.244 99.5379 440.889 99.5379V99.5379Z" fill="white"/>
<path d="M428.313 119.327C438.197 119.327 446.21 110.971 446.21 100.664C446.21 90.356 438.197 82 428.313 82C418.429 82 410.416 90.356 410.416 100.664C410.416 110.971 418.429 119.327 428.313 119.327Z" fill="black"/>
<path d="M305.088 242.236C311.484 242.236 316.669 236.829 316.669 230.159C316.669 223.49 311.484 218.083 305.088 218.083C298.693 218.083 293.508 223.49 293.508 230.159C293.508 236.829 298.693 242.236 305.088 242.236Z" fill="white"/>
<path d="M581.542 257.938C596.148 257.938 607.989 245.59 607.989 230.358C607.989 215.126 596.148 202.778 581.542 202.778C566.936 202.778 555.095 215.126 555.095 230.358C555.095 245.59 566.936 257.938 581.542 257.938Z" fill="black"/>
<path d="M209.791 339.182H129.543V340.71H209.791C213.742 340.71 217.531 342.347 220.325 345.26C223.118 348.174 224.688 352.125 224.688 356.245C224.688 360.365 223.118 364.317 220.325 367.23C217.531 370.143 213.742 371.78 209.791 371.78H88.3624C84.4115 371.78 80.6225 370.143 77.8289 367.23C75.0352 364.317 73.4657 360.365 73.4657 356.245C73.4657 352.125 75.0352 348.174 77.8289 345.26C80.6225 342.347 84.4115 340.71 88.3624 340.71H92.9002V339.182H88.3624C84.0228 339.182 79.861 340.979 76.7924 344.179C73.7239 347.379 72 351.72 72 356.245C72 360.771 73.7239 365.111 76.7924 368.311C79.861 371.511 84.0228 373.309 88.3624 373.309H209.791C214.131 373.309 218.292 371.511 221.361 368.311C224.429 365.111 226.153 360.771 226.153 356.245C226.153 351.72 224.429 347.379 221.361 344.179C218.292 340.979 214.131 339.182 209.791 339.182Z" fill="white"/>
<path d="M209.791 391.916H129.543V393.444H209.791C213.742 393.444 217.531 395.081 220.325 397.994C223.118 400.908 224.688 404.859 224.688 408.979C224.688 413.099 223.118 417.051 220.325 419.964C217.531 422.878 213.742 424.514 209.791 424.514H88.3624C84.4115 424.514 80.6225 422.878 77.8289 419.964C75.0352 417.051 73.4657 413.099 73.4657 408.979C73.4657 404.859 75.0352 400.908 77.8289 397.994C80.6225 395.081 84.4115 393.444 88.3624 393.444H92.9002V391.916H88.3624C84.0228 391.916 79.861 393.714 76.7924 396.914C73.7239 400.114 72 404.454 72 408.979C72 413.505 73.7239 417.845 76.7924 421.045C79.861 424.245 84.0228 426.043 88.3624 426.043H209.791C214.131 426.043 218.292 424.245 221.361 421.045C224.429 417.845 226.153 413.505 226.153 408.979C226.153 404.454 224.429 400.114 221.361 396.914C218.292 393.714 214.131 391.916 209.791 391.916Z" fill="white"/>
<path d="M209.791 444.65H129.543V446.179H209.791C213.742 446.179 217.531 447.815 220.325 450.729C223.118 453.642 224.688 457.594 224.688 461.714C224.688 465.834 223.118 469.785 220.325 472.699C217.531 475.612 213.742 477.249 209.791 477.249H88.3624C84.4115 477.249 80.6225 475.612 77.8289 472.699C75.0352 469.785 73.4657 465.834 73.4657 461.714C73.4657 457.594 75.0352 453.642 77.8289 450.729C80.6225 447.815 84.4115 446.179 88.3624 446.179H92.9002V444.65H88.3624C84.0228 444.65 79.861 446.448 76.7924 449.648C73.7239 452.848 72 457.188 72 461.714C72 466.239 73.7239 470.579 76.7924 473.779C79.861 476.979 84.0228 478.777 88.3624 478.777H209.791C214.131 478.777 218.292 476.979 221.361 473.779C224.429 470.579 226.153 466.239 226.153 461.714C226.153 457.188 224.429 452.848 221.361 449.648C218.292 446.448 214.131 444.65 209.791 444.65V444.65Z" fill="white"/>
<path d="M101.958 335.143C100.815 335.163 99.7251 335.651 98.9235 336.501C98.1218 337.351 97.6726 338.496 97.6726 339.688C97.6726 340.88 98.1218 342.025 98.9235 342.875C99.7251 343.725 100.815 344.212 101.958 344.232H121.075C122.229 344.248 123.341 343.787 124.169 342.949C124.997 342.111 125.472 340.965 125.491 339.762C125.51 338.559 125.071 337.398 124.27 336.532C123.469 335.666 122.372 335.167 121.218 335.143C121.171 335.143 121.123 335.143 121.075 335.143H101.958Z" fill="black"/>
<path d="M101.958 388.642C100.815 388.662 99.7251 389.149 98.9235 390C98.1218 390.85 97.6726 391.994 97.6726 393.186C97.6726 394.379 98.1218 395.523 98.9235 396.373C99.7251 397.223 100.815 397.711 101.958 397.731H121.075C122.229 397.747 123.341 397.285 124.169 396.447C124.997 395.609 125.472 394.464 125.491 393.261C125.51 392.058 125.071 390.896 124.27 390.031C123.469 389.165 122.372 388.666 121.218 388.642C121.171 388.641 121.123 388.641 121.075 388.642H101.958Z" fill="white"/>
<path d="M101.958 440.612C100.815 440.632 99.7246 441.119 98.9228 441.969C98.1209 442.819 97.6715 443.964 97.6715 445.156C97.6715 446.349 98.1209 447.493 98.9228 448.344C99.7246 449.194 100.815 449.681 101.958 449.701H121.075C122.23 449.719 123.345 449.259 124.174 448.421C125.004 447.583 125.481 446.435 125.5 445.231C125.519 444.027 125.078 442.864 124.276 441.997C123.473 441.131 122.373 440.633 121.218 440.612C121.171 440.611 121.123 440.611 121.075 440.612H101.958Z" fill="white"/>
<path d="M94.3755 351.701C93.2323 351.721 92.1424 352.208 91.3407 353.058C90.5389 353.908 90.0897 355.053 90.0897 356.245C90.0897 357.437 90.5389 358.582 91.3407 359.432C92.1424 360.282 93.2323 360.77 94.3755 360.789H203.635C204.208 360.801 204.778 360.694 205.311 360.475C205.845 360.257 206.332 359.93 206.744 359.515C207.157 359.1 207.486 358.604 207.715 358.056C207.943 357.508 208.065 356.918 208.075 356.32C208.084 355.722 207.981 355.128 207.77 354.572C207.559 354.017 207.245 353.51 206.845 353.081C206.446 352.652 205.97 352.309 205.443 352.072C204.917 351.835 204.351 351.709 203.778 351.701C203.73 351.7 203.683 351.7 203.635 351.701H94.3755Z" fill="#E6E6E6"/>
<path d="M94.3755 404.435C93.2323 404.455 92.1424 404.942 91.3407 405.792C90.5389 406.642 90.0897 407.787 90.0897 408.979C90.0897 410.172 90.5389 411.316 91.3407 412.166C92.1424 413.016 93.2323 413.504 94.3755 413.524H203.635C204.208 413.535 204.778 413.428 205.311 413.21C205.845 412.991 206.332 412.665 206.744 412.25C207.157 411.834 207.486 411.338 207.715 410.79C207.943 410.242 208.065 409.652 208.075 409.054C208.084 408.456 207.981 407.863 207.77 407.307C207.559 406.751 207.245 406.244 206.845 405.815C206.446 405.386 205.97 405.043 205.443 404.806C204.917 404.57 204.351 404.443 203.778 404.435C203.73 404.434 203.683 404.434 203.635 404.435H94.3755Z" fill="#E6E6E6"/>
<path d="M94.3755 457.169C93.2323 457.189 92.1424 457.677 91.3407 458.527C90.5389 459.377 90.0897 460.521 90.0897 461.714C90.0897 462.906 90.5389 464.051 91.3407 464.901C92.1424 465.751 93.2323 466.238 94.3755 466.258H203.635C204.208 466.269 204.778 466.163 205.311 465.944C205.845 465.725 206.332 465.399 206.744 464.984C207.157 464.569 207.486 464.073 207.715 463.524C207.943 462.976 208.065 462.386 208.075 461.788C208.084 461.191 207.981 460.597 207.77 460.041C207.559 459.485 207.245 458.978 206.845 458.549C206.446 458.12 205.97 457.777 205.443 457.541C204.917 457.304 204.351 457.178 203.778 457.169C203.73 457.168 203.683 457.168 203.635 457.169H94.3755Z" fill="#E6E6E6"/>
</svg>
