<svg width="917" height="613" viewBox="0 0 917 613" fill="none" xmlns="http://www.w3.org/2000/svg">
<path d="M760.74 396.621C760.484 395.469 760.484 394.275 760.74 393.123C760.996 391.971 761.501 390.889 762.22 389.953C762.939 389.018 763.855 388.251 764.902 387.708C765.95 387.164 767.104 386.857 768.283 386.807L776.546 359.337L786.099 370.78L776.788 395.112C776.739 397.099 775.964 398.998 774.609 400.451C773.253 401.904 771.412 402.809 769.434 402.995C767.456 403.181 765.478 402.635 763.876 401.46C762.273 400.285 761.157 398.564 760.74 396.621Z" fill="#FFB6B6"/>
<path d="M850.563 254.158C850.651 253.965 850.738 253.771 850.826 253.577C850.792 253.578 850.759 253.583 850.725 253.584L850.563 254.158Z" fill="#2F2E41"/>
<path d="M203.437 138.481C231.603 138.481 254.437 115.648 254.437 87.4811C254.437 59.3146 231.603 36.4811 203.437 36.4811C175.27 36.4811 152.437 59.3146 152.437 87.4811C152.437 115.648 175.27 138.481 203.437 138.481Z" fill="#DCDCDC"/>
<path d="M60.0961 239.191C34.5061 182.587 35.4496 110.84 75.1645 63.0753C88.4514 129.308 124.738 188.707 177.603 230.762C198.05 246.907 222.473 262.735 228.059 288.182C231.534 304.015 226.608 320.763 218.091 334.555C209.573 348.348 197.701 359.693 185.964 370.875L184.647 374.701C133.574 339.341 85.6862 295.794 60.0961 239.191Z" fill="#F2F2F2"/>
<path d="M76.27 63.7659C67.1301 113.814 73.92 167.107 96.1356 212.96C100.939 222.874 106.674 232.512 114.352 240.485C122.034 248.462 131.218 253.483 141.784 256.568C151.443 259.389 161.65 261.155 170.456 266.274C179.737 271.67 185.497 280.723 187.741 291.106C190.487 303.81 188.504 316.742 186.125 329.321C183.484 343.288 180.52 357.753 184.347 371.794C184.81 373.495 182.144 374.115 181.681 372.417C175.022 347.989 187.968 323.896 186.158 299.336C185.314 287.876 181.011 276.601 171.185 269.961C162.592 264.155 152.068 262.325 142.263 259.554C131.968 256.644 122.722 252.2 114.855 244.828C106.807 237.286 100.683 227.852 95.6473 218.104C84.2913 196.122 76.8054 171.903 72.8448 147.518C68.2905 119.492 68.564 90.8924 73.6536 62.9579C73.9693 61.2291 76.5836 62.0484 76.2699 63.7659H76.27Z" fill="white"/>
<path d="M88.1281 198.437C79.8377 201.094 70.8728 200.717 62.8343 197.374C54.7959 194.032 48.2074 187.941 44.2454 180.189C43.4491 178.617 45.8534 177.306 46.6508 178.879C50.3268 186.105 56.4646 191.778 63.9564 194.876C71.4481 197.973 79.8003 198.291 87.5056 195.771C89.1806 195.225 89.7936 197.894 88.1281 198.437Z" fill="white"/>
<path d="M136.698 255.783C144.982 240.033 147.026 221.738 142.421 204.548C141.963 202.845 144.629 202.225 145.087 203.926C149.845 221.823 147.68 240.857 139.024 257.228C138.197 258.788 135.876 257.335 136.698 255.783Z" fill="white"/>
<path d="M71.8101 120.381C75.2321 120.021 78.5112 118.817 81.3529 116.877C84.1946 114.937 86.5099 112.322 88.0909 109.266C88.8969 107.696 91.2171 109.151 90.4164 110.711C88.6539 114.079 86.0933 116.964 82.9584 119.115C79.8235 121.265 76.2097 122.615 72.4327 123.047C72.0801 123.118 71.7139 123.051 71.4085 122.862C71.103 122.672 70.8813 122.373 70.7884 122.025C70.7077 121.672 70.7698 121.301 70.9611 120.993C71.1524 120.685 71.4576 120.465 71.8101 120.381Z" fill="white"/>
<path d="M285.487 63.6298C285.012 64.6241 284.536 65.6185 284.072 66.6332C277.749 80.0351 272.526 93.9285 268.454 108.176C268.122 109.273 267.801 110.389 267.501 111.493C258.056 145.924 255.085 181.809 258.739 217.324C260.207 231.455 262.747 245.454 266.338 259.199C271.298 278.182 278.187 298.37 276.633 317.325C276.493 319.304 276.23 321.273 275.847 323.22L189.417 376.011C189.16 376.032 188.915 376.074 188.657 376.096L185.303 378.362C185.068 377.666 184.839 376.939 184.605 376.243C184.467 375.84 184.348 375.425 184.21 375.021C184.125 374.749 184.04 374.476 183.947 374.235C183.918 374.144 183.89 374.053 183.873 373.982C183.78 373.741 183.719 373.507 183.638 373.286C182.35 369.226 181.088 365.151 179.852 361.059C179.84 361.039 179.84 361.039 179.847 361.008C170.51 329.806 163.697 297.55 161.995 265.286C161.944 264.316 161.88 263.326 161.869 262.331C161.183 247.783 161.686 233.204 163.375 218.739C164.326 210.821 165.676 202.956 167.422 195.175C171.971 175.078 179.652 155.822 190.185 138.112C211.188 102.811 243.246 74.6198 282.482 64.3825C283.485 64.1213 284.471 63.8712 285.487 63.6298Z" fill="#F2F2F2"/>
<path d="M285.963 64.8454C248.532 99.3033 221.868 145.942 211.999 195.929C209.865 206.736 208.641 217.885 209.972 228.874C211.303 239.868 215.613 249.407 222.192 258.231C228.206 266.299 235.292 273.854 239.241 283.243C243.403 293.139 242.551 303.836 238.092 313.477C232.635 325.273 223.266 334.405 213.793 343.017C203.276 352.578 192.199 362.344 186.802 375.858C186.148 377.496 183.645 376.385 184.298 374.75C193.689 351.237 218.531 339.794 231.873 319.095C238.098 309.437 241.451 297.844 237.603 286.626C234.238 276.817 226.937 269.019 220.777 260.904C214.308 252.382 209.602 243.267 207.759 232.644C205.873 221.777 206.664 210.557 208.512 199.743C212.68 175.354 221.284 151.509 232.803 129.655C246.041 104.535 263.478 81.8648 284.36 62.625C285.653 61.4347 287.247 63.6629 285.963 64.8454Z" fill="white"/>
<path d="M214.35 179.512C206.131 176.642 199.199 170.944 194.794 163.435C190.388 155.927 188.795 147.096 190.299 138.521C190.609 136.787 193.318 137.188 193.007 138.924C191.592 146.907 193.077 155.132 197.194 162.116C201.311 169.099 207.788 174.381 215.458 177.008C217.124 177.581 216.006 180.081 214.35 179.512Z" fill="white"/>
<path d="M218.603 254.543C234.701 246.954 247.347 233.577 254.02 217.079C254.679 215.444 257.182 216.554 256.523 218.187C249.547 235.343 236.359 249.237 219.59 257.096C217.991 257.844 217.013 255.287 218.603 254.543Z" fill="white"/>
<path d="M248.315 107.364C251.264 109.137 254.607 110.15 258.044 110.312C261.481 110.474 264.905 109.78 268.007 108.291C269.596 107.523 270.572 110.082 268.994 110.845C265.559 112.473 261.777 113.236 257.979 113.065C254.181 112.895 250.483 111.797 247.207 109.868C246.883 109.712 246.631 109.438 246.501 109.103C246.372 108.767 246.375 108.395 246.51 108.062C246.658 107.731 246.931 107.472 247.269 107.342C247.607 107.211 247.983 107.219 248.315 107.364Z" fill="white"/>
<path d="M490.096 177.191C464.506 120.587 465.45 48.8397 505.165 1.07532C518.451 67.3085 554.738 126.707 607.603 168.762C628.05 184.907 652.473 200.735 658.059 226.182C661.534 242.015 656.608 258.763 648.091 272.555C639.573 286.348 627.701 297.693 615.964 308.875L614.647 312.701C563.574 277.341 515.686 233.794 490.096 177.191Z" fill="#F2F2F2"/>
<path d="M506.27 1.76591C497.13 51.8142 503.92 105.107 526.136 150.96C530.939 160.874 536.674 170.512 544.352 178.485C552.034 186.462 561.218 191.483 571.784 194.568C581.443 197.389 591.65 199.155 600.456 204.274C609.737 209.67 615.497 218.723 617.741 229.106C620.487 241.81 618.504 254.742 616.125 267.321C613.484 281.288 610.52 295.753 614.347 309.794C614.81 311.495 612.144 312.115 611.681 310.417C605.022 285.989 617.968 261.896 616.158 237.336C615.314 225.876 611.011 214.601 601.185 207.961C592.592 202.155 582.068 200.325 572.263 197.554C561.968 194.644 552.722 190.2 544.855 182.828C536.807 175.286 530.683 165.852 525.647 156.104C514.291 134.122 506.805 109.903 502.845 85.5184C498.29 57.4917 498.564 28.8924 503.654 0.95791C503.969 -0.77093 506.584 0.0484086 506.27 1.76591Z" fill="white"/>
<path d="M518.128 136.437C509.838 139.094 500.873 138.717 492.834 135.374C484.796 132.032 478.207 125.941 474.246 118.189C473.449 116.617 475.854 115.306 476.651 116.879C480.327 124.105 486.465 129.778 493.957 132.876C501.448 135.973 509.8 136.291 517.506 133.771C519.181 133.225 519.794 135.894 518.128 136.437Z" fill="white"/>
<path d="M566.698 193.783C574.982 178.033 577.026 159.738 572.421 142.548C571.963 140.845 574.63 140.225 575.087 141.926C579.845 159.823 577.68 178.857 569.024 195.228C568.197 196.788 565.876 195.335 566.698 193.783Z" fill="white"/>
<path d="M501.81 58.381C505.232 58.0214 508.511 56.8175 511.353 54.8774C514.195 52.9373 516.51 50.3218 518.091 47.2657C518.897 45.6961 521.217 47.1513 520.416 48.7107C518.654 52.079 516.093 54.9645 512.958 57.115C509.824 59.2654 506.21 60.6155 502.433 61.0471C502.08 61.1177 501.714 61.0513 501.408 60.8615C501.103 60.6717 500.881 60.3728 500.788 60.0254C500.708 59.672 500.77 59.301 500.961 58.9931C501.152 58.6852 501.458 58.4653 501.81 58.3811V58.381Z" fill="white"/>
<path d="M715.487 1.62976C715.012 2.62414 714.536 3.61853 714.072 4.63324C707.749 18.0351 702.526 31.9285 698.454 46.1762C698.122 47.2728 697.801 48.3891 697.501 49.4929C688.056 83.9235 685.085 119.809 688.739 155.324C690.207 169.455 692.747 183.454 696.338 197.199C701.298 216.182 708.187 236.37 706.633 255.325C706.493 257.304 706.23 259.273 705.847 261.22L619.417 314.011C619.16 314.032 618.915 314.074 618.657 314.096L615.303 316.362C615.068 315.666 614.839 314.939 614.605 314.243C614.467 313.84 614.348 313.425 614.21 313.021C614.125 312.749 614.04 312.476 613.947 312.235C613.918 312.144 613.89 312.053 613.873 311.982C613.78 311.741 613.719 311.507 613.638 311.286C612.35 307.226 611.088 303.151 609.852 299.059C609.84 299.039 609.84 299.039 609.847 299.008C600.51 267.806 593.697 235.55 591.995 203.286C591.944 202.316 591.88 201.326 591.869 200.331C591.183 185.783 591.686 171.204 593.375 156.739C594.326 148.821 595.676 140.956 597.422 133.175C601.971 113.078 609.652 93.822 620.185 76.1122C641.188 40.8111 673.246 12.6198 712.482 2.38248C713.485 2.12132 714.471 1.87119 715.487 1.62976Z" fill="#F0F0F0"/>
<path d="M715.963 2.84536C678.532 37.3033 651.868 83.9423 641.999 133.929C639.865 144.736 638.641 155.885 639.972 166.874C641.303 177.868 645.613 187.407 652.192 196.231C658.206 204.299 665.292 211.854 669.241 221.243C673.403 231.139 672.551 241.836 668.092 251.477C662.635 263.273 653.266 272.405 643.793 281.017C633.276 290.578 622.199 300.344 616.802 313.858C616.148 315.496 613.645 314.385 614.298 312.75C623.689 289.237 648.531 277.794 661.873 257.095C668.098 247.437 671.451 235.844 667.603 224.626C664.238 214.817 656.937 207.019 650.777 198.904C644.308 190.382 639.602 181.267 637.759 170.644C635.873 159.777 636.664 148.557 638.512 137.743C642.68 113.354 651.284 89.5091 662.803 67.6549C676.041 42.5351 693.478 19.8648 714.36 0.625012C715.653 -0.565278 717.247 1.66289 715.963 2.8454V2.84536Z" fill="white"/>
<path d="M644.35 117.512C636.131 114.642 629.199 108.944 624.794 101.435C620.388 93.9265 618.795 85.0963 620.299 76.5214C620.609 74.7874 623.318 75.188 623.007 76.9243C621.592 84.9067 623.077 93.1319 627.194 100.116C631.311 107.099 637.788 112.381 645.458 115.008C647.124 115.581 646.006 118.081 644.35 117.512Z" fill="white"/>
<path d="M648.603 192.543C664.701 184.954 677.347 171.577 684.02 155.079C684.679 153.444 687.182 154.554 686.523 156.187C679.547 173.343 666.359 187.237 649.59 195.096C647.991 195.844 647.013 193.287 648.603 192.543Z" fill="white"/>
<path d="M678.315 45.3642C681.264 47.1373 684.607 48.1503 688.044 48.3121C691.481 48.474 694.905 47.7796 698.007 46.2914C699.596 45.5235 700.572 48.0823 698.994 48.8452C695.559 50.4735 691.777 51.2357 687.979 51.0653C684.181 50.895 680.483 49.7971 677.207 47.8678C676.883 47.7118 676.631 47.4383 676.501 47.1029C676.372 46.7675 676.375 46.3953 676.51 46.062C676.658 45.7312 676.931 45.4724 677.269 45.3417C677.607 45.2111 677.983 45.2192 678.315 45.3642Z" fill="white"/>
<path d="M163.937 596.981L173.383 604.297L210.112 610.67L250.937 509.19C250.937 509.19 275.937 430.981 345.937 446.981L570.937 442.981C570.937 442.981 640.02 435.901 651.437 468.481C653.599 474.652 711.937 610.981 711.937 610.981L752.838 605.208L747.937 488.981L650.791 263.481L481.937 252.938L307.937 264.981L163.937 596.981Z" fill="black"/>
<path d="M350.937 453.981C386.835 453.981 415.937 424.88 415.937 388.981C415.937 353.083 386.835 323.981 350.937 323.981C315.038 323.981 285.937 353.083 285.937 388.981C285.937 424.88 315.038 453.981 350.937 453.981Z" fill="#101010"/>
<path d="M568.937 453.981C604.835 453.981 633.937 424.88 633.937 388.981C633.937 353.083 604.835 323.981 568.937 323.981C533.038 323.981 503.937 353.083 503.937 388.981C503.937 424.88 533.038 453.981 568.937 453.981Z" fill="#101010"/>
<path d="M274.937 175.981L301.7 170.733C301.7 170.733 503.204 141.981 630.571 175.981L620.937 202.981L283.937 200.981L274.937 175.981Z" fill="#E6E6E6"/>
<path d="M546.626 315.481H375.617C354.853 315.481 336.908 301.104 332.947 281.295L314.232 187.691C313.818 185.648 313.835 183.541 314.281 181.505C314.727 179.469 315.592 177.549 316.822 175.866C318.109 174.101 319.745 172.619 321.629 171.513C323.512 170.406 325.603 169.699 327.771 169.434C417.964 158.239 507.273 158.22 593.221 169.376C595.359 169.638 597.421 170.337 599.277 171.43C601.133 172.522 602.745 173.985 604.011 175.728C605.234 177.386 606.102 179.278 606.561 181.286C607.021 183.294 607.062 185.375 606.683 187.4L589.407 280.717C585.678 300.86 567.686 315.481 546.626 315.481Z" fill="#DCDCDC"/>
<path d="M198.866 191.22L199.611 177.825C199.727 175.739 200.347 173.711 201.418 171.916C202.489 170.121 203.979 168.613 205.76 167.519C216.557 160.895 245.683 146.311 282.852 153.956C285.462 154.496 287.843 155.827 289.67 157.768C291.497 159.708 292.682 162.165 293.065 164.802L294.06 171.772L198.866 191.22Z" fill="black"/>
<path d="M723.007 191.22L627.814 171.772L629.413 160.575C629.597 159.253 630.173 158.016 631.066 157.023C631.959 156.031 633.128 155.328 634.424 155.006C677.289 144.248 710.099 163.352 719.135 169.463C719.992 170.045 720.704 170.817 721.216 171.718C721.728 172.619 722.026 173.626 722.087 174.66L723.007 191.22Z" fill="black"/>
<path d="M168.641 605.716C166.347 605.741 164.094 605.107 162.15 603.89C136.661 589.006 120.77 561.731 114.955 522.844C110.152 490.723 112.158 450.406 120.917 403.011C136.446 318.985 168.992 234.995 182.265 202.785C184.023 198.534 186.755 194.755 190.242 191.753C193.728 188.75 197.87 186.609 202.336 185.501C229.697 178.771 277.463 167.481 289.937 167.481C307.031 167.481 316.281 183.573 316.373 183.736L316.424 183.869L331.437 248.969V249.909C339.719 277.931 333.565 298.174 326.94 310.222C319.749 323.299 310.444 329.828 310.351 329.892C295.74 341.015 271.936 376.848 248.246 423.395C223.627 471.767 205.377 519.497 199.428 551.074C192.146 589.723 181.472 601.555 173.799 604.674C172.164 605.354 170.412 605.708 168.641 605.716Z" fill="#E6E6E6"/>
<path d="M540.989 307.481H379.408C369.872 307.468 360.636 304.144 353.277 298.078C345.919 292.011 340.895 283.578 339.064 274.219L321.381 183.183C320.988 181.168 321.012 179.093 321.453 177.088C321.893 175.083 322.74 173.189 323.941 171.524C325.142 169.859 326.671 168.458 328.435 167.407C330.199 166.356 332.159 165.678 334.195 165.414C419.419 154.526 503.809 154.507 585.02 165.358C587.028 165.631 588.959 166.308 590.698 167.348C592.437 168.387 593.947 169.769 595.137 171.408C596.328 173.047 597.174 174.911 597.625 176.886C598.076 178.861 598.123 180.907 597.761 182.901L581.438 273.657C579.738 283.146 574.754 291.735 567.359 297.919C559.964 304.103 550.629 307.488 540.989 307.481Z" fill="#E6E6E6"/>
<path d="M753.236 605.717C751.464 605.709 749.71 605.355 748.074 604.674C740.402 601.555 729.727 589.723 722.446 551.074C716.496 519.497 698.246 471.767 673.628 423.395C649.937 376.848 626.133 341.015 611.504 329.879C611.429 329.828 602.125 323.299 594.934 310.222C588.308 298.174 582.155 277.931 590.437 249.909L590.449 248.857L605.466 183.798L605.501 183.736C605.592 183.573 614.842 167.481 631.937 167.481C644.411 167.481 692.176 178.771 719.538 185.501C724.003 186.609 728.145 188.751 731.631 191.753C735.118 194.755 737.85 198.534 739.609 202.785C752.881 234.995 785.428 318.984 800.957 403.011C809.715 450.406 811.721 490.723 806.918 522.844C801.103 561.731 785.213 589.006 759.689 603.913C757.754 605.117 755.515 605.744 753.236 605.717Z" fill="#E6E6E6"/>
<path d="M350.937 416.981C372.476 416.981 389.937 399.52 389.937 377.981C389.937 356.442 372.476 338.981 350.937 338.981C329.398 338.981 311.937 356.442 311.937 377.981C311.937 399.52 329.398 416.981 350.937 416.981Z" fill="#636363"/>
<path d="M350.937 403.981C365.296 403.981 376.937 392.34 376.937 377.981C376.937 363.622 365.296 351.981 350.937 351.981C336.577 351.981 324.937 363.622 324.937 377.981C324.937 392.34 336.577 403.981 350.937 403.981Z" fill="#1A1A1A"/>
<path d="M568.937 416.981C590.476 416.981 607.937 399.52 607.937 377.981C607.937 356.442 590.476 338.981 568.937 338.981C547.398 338.981 529.937 356.442 529.937 377.981C529.937 399.52 547.398 416.981 568.937 416.981Z" fill="#636363"/>
<path d="M568.937 403.981C583.296 403.981 594.937 392.34 594.937 377.981C594.937 363.622 583.296 351.981 568.937 351.981C554.577 351.981 542.937 363.622 542.937 377.981C542.937 392.34 554.577 403.981 568.937 403.981Z" fill="#1A1A1A"/>
<path d="M435.937 330.981C437.594 330.981 438.937 329.638 438.937 327.981C438.937 326.324 437.594 324.981 435.937 324.981C434.28 324.981 432.937 326.324 432.937 327.981C432.937 329.638 434.28 330.981 435.937 330.981Z" fill="white"/>
<path d="M448.937 330.981C450.594 330.981 451.937 329.638 451.937 327.981C451.937 326.324 450.594 324.981 448.937 324.981C447.28 324.981 445.937 326.324 445.937 327.981C445.937 329.638 447.28 330.981 448.937 330.981Z" fill="white"/>
<path d="M442.937 341.981C444.594 341.981 445.937 340.638 445.937 338.981C445.937 337.324 444.594 335.981 442.937 335.981C441.28 335.981 439.937 337.324 439.937 338.981C439.937 340.638 441.28 341.981 442.937 341.981Z" fill="white"/>
<path d="M454.937 341.981C456.594 341.981 457.937 340.638 457.937 338.981C457.937 337.324 456.594 335.981 454.937 335.981C453.28 335.981 451.937 337.324 451.937 338.981C451.937 340.638 453.28 341.981 454.937 341.981Z" fill="white"/>
<path d="M466.937 341.981C468.594 341.981 469.937 340.638 469.937 338.981C469.937 337.324 468.594 335.981 466.937 335.981C465.28 335.981 463.937 337.324 463.937 338.981C463.937 340.638 465.28 341.981 466.937 341.981Z" fill="white"/>
<path d="M478.937 341.981C480.594 341.981 481.937 340.638 481.937 338.981C481.937 337.324 480.594 335.981 478.937 335.981C477.28 335.981 475.937 337.324 475.937 338.981C475.937 340.638 477.28 341.981 478.937 341.981Z" fill="white"/>
<path d="M461.937 330.981C463.594 330.981 464.937 329.638 464.937 327.981C464.937 326.324 463.594 324.981 461.937 324.981C460.28 324.981 458.937 326.324 458.937 327.981C458.937 329.638 460.28 330.981 461.937 330.981Z" fill="white"/>
<path d="M474.937 330.981C476.594 330.981 477.937 329.638 477.937 327.981C477.937 326.324 476.594 324.981 474.937 324.981C473.28 324.981 471.937 326.324 471.937 327.981C471.937 329.638 473.28 330.981 474.937 330.981Z" fill="white"/>
<path d="M487.937 330.981C489.594 330.981 490.937 329.638 490.937 327.981C490.937 326.324 489.594 324.981 487.937 324.981C486.28 324.981 484.937 326.324 484.937 327.981C484.937 329.638 486.28 330.981 487.937 330.981Z" fill="white"/>
<path d="M473.937 420.481H447.937C446.743 420.481 445.599 420.007 444.755 419.163C443.911 418.319 443.437 417.175 443.437 415.981C443.437 414.788 443.911 413.643 444.755 412.799C445.599 411.955 446.743 411.481 447.937 411.481H473.937C475.13 411.481 476.275 411.955 477.119 412.799C477.963 413.643 478.437 414.788 478.437 415.981C478.437 417.175 477.963 418.319 477.119 419.163C476.275 420.007 475.13 420.481 473.937 420.481Z" fill="#B8B8B8"/>
<path d="M301.781 224.867C300.103 224.863 298.475 224.293 297.161 223.25C295.846 222.206 294.922 220.751 294.536 219.118L290.549 202.19C290.098 200.265 290.429 198.241 291.47 196.561C292.511 194.88 294.176 193.682 296.099 193.229C298.023 192.776 300.048 193.105 301.729 194.144C303.411 195.183 304.611 196.847 305.066 198.77L309.053 215.698C309.31 216.794 309.315 217.934 309.069 219.032C308.823 220.13 308.332 221.159 307.633 222.04C306.933 222.922 306.044 223.634 305.03 224.124C304.017 224.614 302.906 224.868 301.781 224.867Z" fill="black"/>
<path d="M621.093 223.867C619.968 223.868 618.857 223.613 617.843 223.124C616.83 222.634 615.94 221.922 615.241 221.04C614.541 220.159 614.05 219.13 613.804 218.032C613.559 216.934 613.564 215.794 613.82 214.698L617.808 197.77C618.263 195.847 619.463 194.183 621.144 193.144C622.825 192.105 624.85 191.776 626.774 192.229C628.698 192.682 630.363 193.88 631.404 195.561C632.444 197.241 632.776 199.265 632.324 201.19L628.337 218.118C627.952 219.751 627.027 221.206 625.713 222.25C624.398 223.293 622.771 223.863 621.093 223.867Z" fill="#181818"/>
<path d="M246.765 274.835C244.311 274.835 241.917 274.08 239.907 272.671L231.538 266.812C229.963 265.709 228.677 264.243 227.789 262.537C226.901 260.832 226.437 258.938 226.437 257.015V239.071C226.441 235.468 227.874 232.014 230.422 229.466C232.97 226.918 236.424 225.485 240.027 225.481H252.846C256.449 225.485 259.904 226.918 262.452 229.466C264.999 232.014 266.433 235.468 266.437 239.071V257.191C266.433 259.064 265.991 260.91 265.146 262.582C264.302 264.254 263.077 265.704 261.571 266.818L253.859 272.501C251.805 274.017 249.319 274.835 246.765 274.835Z" fill="black"/>
<path d="M252.846 340.481H240.027C236.424 340.477 232.97 339.044 230.422 336.496C227.874 333.948 226.441 330.494 226.437 326.891V308.947C226.437 307.025 226.901 305.13 227.789 303.425C228.677 301.72 229.963 300.253 231.538 299.15L239.907 293.291C241.958 291.854 244.407 291.098 246.911 291.128C249.414 291.159 251.844 291.975 253.859 293.461L261.571 299.144C263.077 300.258 264.302 301.709 265.146 303.38C265.991 305.052 266.433 306.898 266.437 308.771V326.891C266.433 330.494 264.999 333.948 262.452 336.496C259.904 339.044 256.449 340.477 252.846 340.481Z" fill="black"/>
<path d="M292.846 302.981H274.903C272.98 302.98 271.086 302.516 269.381 301.628C267.675 300.74 266.209 299.455 265.106 297.88L259.247 289.51C257.81 287.46 257.053 285.01 257.084 282.507C257.114 280.004 257.93 277.573 259.417 275.559L265.1 267.846C266.214 266.34 267.664 265.116 269.336 264.271C271.008 263.426 272.854 262.985 274.727 262.981H292.846C296.45 262.985 299.904 264.418 302.452 266.966C304.999 269.514 306.433 272.968 306.437 276.571V289.391C306.433 292.994 304.999 296.448 302.452 298.996C299.904 301.544 296.45 302.977 292.846 302.981Z" fill="#060606"/>
<path d="M216.97 302.981H199.027C195.424 302.977 191.97 301.544 189.422 298.996C186.874 296.448 185.441 292.994 185.437 289.391V276.571C185.441 272.968 186.874 269.514 189.422 266.966C191.97 264.418 195.424 262.985 199.027 262.981H217.147C219.02 262.985 220.866 263.426 222.538 264.271C224.209 265.116 225.66 266.34 226.774 267.846L232.457 275.559C233.943 277.573 234.759 280.004 234.79 282.507C234.82 285.01 234.063 287.46 232.627 289.51L226.768 297.88C225.665 299.455 224.198 300.74 222.493 301.628C220.787 302.516 218.893 302.98 216.97 302.981Z" fill="#171717"/>
<path d="M675.937 254.981C688.639 254.981 698.937 244.684 698.937 231.981C698.937 219.279 688.639 208.981 675.937 208.981C663.234 208.981 652.937 219.279 652.937 231.981C652.937 244.684 663.234 254.981 675.937 254.981Z" fill="#040404"/>
<path d="M726.937 307.981C739.639 307.981 749.937 297.684 749.937 284.981C749.937 272.279 739.639 261.981 726.937 261.981C714.234 261.981 703.937 272.279 703.937 284.981C703.937 297.684 714.234 307.981 726.937 307.981Z" fill="#070707"/>
<path d="M675.937 357.981C688.639 357.981 698.937 347.684 698.937 334.981C698.937 322.279 688.639 311.981 675.937 311.981C663.234 311.981 652.937 322.279 652.937 334.981C652.937 347.684 663.234 357.981 675.937 357.981Z" fill="#080809"/>
<path d="M624.937 306.981C637.639 306.981 647.937 296.684 647.937 283.981C647.937 271.279 637.639 260.981 624.937 260.981C612.234 260.981 601.937 271.279 601.937 283.981C601.937 296.684 612.234 306.981 624.937 306.981Z" fill="black"/>
<path d="M726.937 299.981C723.97 299.981 721.07 299.101 718.603 297.453C716.136 295.805 714.214 293.462 713.079 290.721C711.943 287.98 711.646 284.964 712.225 282.055C712.804 279.145 714.232 276.472 716.33 274.374C718.428 272.277 721.101 270.848 724.01 270.269C726.92 269.691 729.936 269.988 732.677 271.123C735.418 272.258 737.761 274.181 739.409 276.647C741.057 279.114 741.937 282.014 741.937 284.981C741.932 288.958 740.35 292.771 737.538 295.583C734.726 298.395 730.914 299.977 726.937 299.981ZM726.937 271.981C724.366 271.981 721.852 272.743 719.714 274.172C717.576 275.6 715.91 277.631 714.926 280.006C713.942 282.382 713.685 284.995 714.187 287.517C714.688 290.039 715.926 292.355 717.744 294.173C719.562 295.992 721.879 297.23 724.401 297.731C726.922 298.233 729.536 297.975 731.912 296.991C734.287 296.008 736.317 294.341 737.746 292.203C739.174 290.066 739.937 287.552 739.937 284.981C739.933 281.534 738.562 278.23 736.125 275.793C733.688 273.356 730.383 271.985 726.937 271.981Z" fill="white"/>
<path d="M692.009 243.141L661.864 242.714L677.306 216.821L692.009 243.141ZM665.357 240.763L688.573 241.092L677.25 220.821L665.357 240.763Z" fill="white"/>
<path d="M636.937 295.981H612.937V271.981H636.937V295.981ZM614.937 293.981H634.937V273.981H614.937V293.981Z" fill="white"/>
<path d="M688.348 345.307L677.353 334.333L687.049 324.655L685.635 323.239L675.937 332.919L666.238 323.239L664.825 324.655L674.521 334.333L663.526 345.307L664.939 346.723L675.937 335.746L686.935 346.723L688.348 345.307Z" fill="#FFFAFA"/>
<path d="M246.732 73.8397C243.765 73.8397 240.865 72.9599 238.398 71.3117C235.932 69.6635 234.009 67.3208 232.874 64.5799C231.738 61.839 231.441 58.823 232.02 55.9133C232.599 53.0036 234.028 50.3309 236.125 48.2331C238.223 46.1353 240.896 44.7067 243.806 44.1279C246.715 43.5491 249.731 43.8462 252.472 44.9815C255.213 46.1168 257.556 48.0394 259.204 50.5061C260.852 52.9728 261.732 55.8729 261.732 58.8397C261.727 62.8165 260.146 66.6292 257.334 69.4413C254.522 72.2534 250.709 73.8352 246.732 73.8397ZM246.732 45.8397C244.161 45.8397 241.647 46.6021 239.51 48.0306C237.372 49.459 235.705 51.4893 234.722 53.8648C233.738 56.2402 233.48 58.8541 233.982 61.3758C234.483 63.8976 235.722 66.214 237.54 68.032C239.358 69.8501 241.674 71.0883 244.196 71.5899C246.718 72.0915 249.331 71.834 251.707 70.8501C254.082 69.8662 256.113 68.1999 257.541 66.0621C258.97 63.9242 259.732 61.4108 259.732 58.8397C259.728 55.393 258.357 52.0886 255.92 49.6515C253.483 47.2143 250.179 45.8435 246.732 45.8397Z" fill="white"/>
<path d="M212.804 48.9993L182.66 48.573L198.102 22.68L212.804 48.9993ZM186.152 46.6219L209.369 46.9505L198.045 26.68L186.152 46.6219Z" fill="white"/>
<path d="M168.437 85.4811H144.437V61.4811H168.437V85.4811ZM146.437 83.4811H166.437V63.4811H146.437V83.4811Z" fill="white"/>
<path d="M190.143 130.165L179.148 119.191L188.844 109.514L187.431 108.098L177.732 117.778L168.033 108.098L166.62 109.514L176.316 119.191L165.321 130.165L166.734 131.581L177.732 120.604L188.73 131.581L190.143 130.165Z" fill="white"/>
<path d="M1.24701 612.055H915.528C915.859 612.055 916.176 611.924 916.41 611.69C916.644 611.456 916.775 611.139 916.775 610.808C916.775 610.477 916.644 610.16 916.41 609.926C916.176 609.692 915.859 609.561 915.528 609.561H1.24701C0.916284 609.561 0.599108 609.692 0.36525 609.926C0.131392 610.16 0 610.477 0 610.808C0 611.139 0.131392 611.456 0.36525 611.69C0.599108 611.924 0.916284 612.055 1.24701 612.055Z" fill="#CCCCCC"/>
</svg>
