<svg width="693" height="528" viewBox="0 0 693 528" fill="none" xmlns="http://www.w3.org/2000/svg">
<path d="M693 283.5V505.31C692.993 511.326 690.6 517.093 686.346 521.346C682.093 525.6 676.326 527.993 670.31 528H500.17L501.75 526L691 286.04L693 283.5Z" fill="#F2F2F2"/>
<path d="M270.812 205.368H75.443C73.8421 205.368 72.3068 206.004 71.1749 207.136C70.0429 208.268 69.407 209.803 69.407 211.404C69.407 213.005 70.0429 214.54 71.1749 215.672C72.3068 216.804 73.8421 217.44 75.443 217.44H270.812C272.413 217.44 273.948 216.804 275.08 215.672C276.212 214.54 276.848 213.005 276.848 211.404C276.848 209.803 276.212 208.268 275.08 207.136C273.948 206.004 272.413 205.368 270.812 205.368Z" fill="#E6E6E6"/>
<path d="M136.017 171.524H75.443C73.8421 171.524 72.3068 172.16 71.1749 173.291C70.0429 174.423 69.407 175.959 69.407 177.56C69.407 179.16 70.0429 180.696 71.1749 181.828C72.3068 182.96 73.8421 183.596 75.443 183.596H136.018C137.618 183.596 139.154 182.96 140.286 181.828C141.418 180.696 142.054 179.16 142.054 177.56C142.054 175.959 141.418 174.423 140.286 173.291C139.154 172.16 137.618 171.524 136.018 171.524H136.017Z" fill="#E6E6E6"/>
<path d="M670.31 0H22.69C16.6745 0.0072432 10.9074 2.40012 6.65375 6.65375C2.40012 10.9074 0.0072432 16.6745 0 22.69V505.31C0.0072432 511.326 2.40012 517.093 6.65375 521.346C10.9074 525.6 16.6745 527.993 22.69 528H670.31C676.326 527.993 682.093 525.6 686.346 521.346C690.6 517.093 692.993 511.326 693 505.31V22.69C692.993 16.6745 690.6 10.9074 686.346 6.65375C682.093 2.40012 676.326 0.0072432 670.31 0V0ZM691 505.31C691 508.027 690.465 510.717 689.425 513.228C688.385 515.738 686.861 518.019 684.94 519.94C683.019 521.861 680.738 523.385 678.228 524.425C675.717 525.465 673.027 526 670.31 526H22.69C17.2027 526 11.9401 523.82 8.05997 519.94C4.17984 516.06 2 510.797 2 505.31V157.676C2 116.388 18.4015 76.7911 47.5963 47.5963C76.7911 18.4015 116.388 2 157.676 2H670.31C673.027 2 675.717 2.53517 678.228 3.57494C680.738 4.61471 683.019 6.13872 684.94 8.05997C686.861 9.98121 688.385 12.2621 689.425 14.7723C690.465 17.2825 691 19.973 691 22.69V505.31Z" fill="#E6E6E6"/>
<path d="M629.891 87.2686H63.16C62.8948 87.2686 62.6404 87.1632 62.4529 86.9757C62.2654 86.7881 62.16 86.5338 62.16 86.2686C62.16 86.0033 62.2654 85.749 62.4529 85.5615C62.6404 85.3739 62.8948 85.2686 63.16 85.2686H629.891C630.156 85.2686 630.41 85.3739 630.598 85.5615C630.785 85.749 630.891 86.0033 630.891 86.2686C630.891 86.5338 630.785 86.7881 630.598 86.9757C630.41 87.1632 630.156 87.2686 629.891 87.2686Z" fill="#E6E6E6"/>
<path d="M91.5148 57.2481C96.1853 57.2481 99.9715 53.3776 99.9715 48.603C99.9715 43.8285 96.1853 39.9579 91.5148 39.9579C86.8444 39.9579 83.0582 43.8285 83.0582 48.603C83.0582 53.3776 86.8444 57.2481 91.5148 57.2481Z" fill="#E6E6E6"/>
<path d="M120.729 57.2481C125.399 57.2481 129.185 53.3776 129.185 48.603C129.185 43.8285 125.399 39.9579 120.729 39.9579C116.058 39.9579 112.272 43.8285 112.272 48.603C112.272 53.3776 116.058 57.2481 120.729 57.2481Z" fill="#E6E6E6"/>
<path d="M149.942 57.2481C154.613 57.2481 158.399 53.3776 158.399 48.603C158.399 43.8285 154.613 39.9579 149.942 39.9579C145.272 39.9579 141.486 43.8285 141.486 48.603C141.486 53.3776 145.272 57.2481 149.942 57.2481Z" fill="#E6E6E6"/>
<path d="M183.254 55.4358C183.121 55.436 182.989 55.4094 182.866 55.3578C182.743 55.3061 182.632 55.2304 182.539 55.135L176.833 49.302C176.65 49.1152 176.548 48.8642 176.548 48.6028C176.548 48.3414 176.65 48.0904 176.833 47.9036L182.539 42.0711C182.63 41.9757 182.74 41.8994 182.861 41.8466C182.982 41.7938 183.113 41.7655 183.245 41.7634C183.377 41.7613 183.508 41.7854 183.631 41.8344C183.754 41.8833 183.865 41.956 183.96 42.0484C184.054 42.1408 184.13 42.251 184.181 42.3727C184.233 42.4943 184.26 42.625 184.261 42.7571C184.261 42.8893 184.236 43.0203 184.186 43.1425C184.136 43.2648 184.062 43.3759 183.969 43.4695L178.947 48.6028L183.969 53.7366C184.106 53.8773 184.199 54.0555 184.236 54.2489C184.273 54.4422 184.252 54.6421 184.175 54.8236C184.099 55.005 183.971 55.1599 183.807 55.2688C183.643 55.3777 183.451 55.4358 183.254 55.4358V55.4358Z" fill="#E6E6E6"/>
<path d="M192.842 55.4358C192.645 55.4358 192.453 55.3777 192.289 55.2688C192.125 55.1599 191.997 55.005 191.921 54.8236C191.844 54.6421 191.823 54.4422 191.86 54.2488C191.897 54.0555 191.99 53.8773 192.127 53.7366L197.149 48.6028L192.127 43.4695C191.945 43.2793 191.845 43.0248 191.849 42.7613C191.853 42.4978 191.961 42.2466 192.15 42.0623C192.338 41.8781 192.592 41.7756 192.855 41.7772C193.119 41.7789 193.371 41.8844 193.557 42.071L199.263 47.9035C199.445 48.0903 199.548 48.3413 199.548 48.6028C199.548 48.8642 199.445 49.1152 199.263 49.302L193.557 55.135C193.464 55.2303 193.353 55.3061 193.23 55.3578C193.107 55.4094 192.975 55.436 192.842 55.4358V55.4358Z" fill="#E6E6E6"/>
<path d="M579.352 40.9589H568.742C568.454 40.9588 568.17 41.0154 567.904 41.1254C567.638 41.2354 567.397 41.3967 567.193 41.6001C566.99 41.8035 566.829 42.0449 566.719 42.3107C566.608 42.5764 566.552 42.8612 566.552 43.1489V53.7689C566.552 54.0565 566.608 54.3413 566.719 54.607C566.829 54.8728 566.99 55.1142 567.193 55.3176C567.397 55.521 567.638 55.6823 567.904 55.7923C568.17 55.9024 568.454 55.9589 568.742 55.9589H579.352C579.934 55.9594 580.492 55.7292 580.905 55.3186C581.317 54.9081 581.55 54.3508 581.552 53.7689V43.1489C581.55 42.5669 581.317 42.0096 580.905 41.5991C580.492 41.1885 579.934 40.9583 579.352 40.9589Z" fill="#E6E6E6"/>
<path d="M553.352 40.9589H542.742C542.454 40.9588 542.17 41.0154 541.904 41.1254C541.638 41.2354 541.397 41.3967 541.193 41.6001C540.99 41.8035 540.829 42.0449 540.719 42.3107C540.608 42.5764 540.552 42.8612 540.552 43.1489V53.7689C540.552 54.0565 540.608 54.3413 540.719 54.607C540.829 54.8728 540.99 55.1142 541.193 55.3176C541.397 55.521 541.638 55.6823 541.904 55.7923C542.17 55.9024 542.454 55.9589 542.742 55.9589H553.352C553.934 55.9594 554.492 55.7292 554.905 55.3186C555.317 54.9081 555.55 54.3508 555.552 53.7689V43.1489C555.55 42.5669 555.317 42.0096 554.905 41.5991C554.492 41.1885 553.934 40.9583 553.352 40.9589V40.9589Z" fill="#E6E6E6"/>
<path d="M603.852 41.4589H593.242C592.954 41.4588 592.67 41.5154 592.404 41.6254C592.138 41.7354 591.897 41.8967 591.693 42.1001C591.49 42.3035 591.329 42.5449 591.219 42.8107C591.108 43.0764 591.052 43.3612 591.052 43.6489V54.2689C591.052 54.5565 591.108 54.8413 591.219 55.107C591.329 55.3728 591.49 55.6142 591.693 55.8176C591.897 56.021 592.138 56.1823 592.404 56.2923C592.67 56.4024 592.954 56.4589 593.242 56.4589H603.852C604.434 56.4594 604.992 56.2292 605.405 55.8186C605.817 55.4081 606.05 54.8508 606.052 54.2689V43.6489C606.05 43.0669 605.817 42.5096 605.405 42.0991C604.992 41.6885 604.434 41.4583 603.852 41.4589V41.4589Z" fill="#E6E6E6"/>
<path d="M388.93 45.4988H304.12C303.412 45.4988 302.733 45.7801 302.232 46.2808C301.732 46.7815 301.45 47.4606 301.45 48.1688C301.45 48.8769 301.732 49.556 302.232 50.0567C302.733 50.5575 303.412 50.8388 304.12 50.8388H388.93C389.638 50.8388 390.318 50.5575 390.818 50.0567C391.319 49.556 391.6 48.8769 391.6 48.1688C391.6 47.4606 391.319 46.7815 390.818 46.2808C390.318 45.7801 389.638 45.4988 388.93 45.4988V45.4988Z" fill="#E6E6E6"/>
<path d="M161.607 410.446L110.89 408.843C103.856 408.621 95.9459 408.632 90.9287 412.267C85.2344 416.393 86.0966 423.703 90.8244 428.444C95.5522 433.185 103.101 435.894 110.511 438.096C149.875 449.796 193.439 452.171 235.74 449.524C278.04 446.876 319.47 439.392 360.695 431.933C364.605 431.226 369.037 430.208 370.631 427.487C372.174 424.855 370.155 421.681 367.02 419.979C363.885 418.278 359.911 417.705 356.077 417.198C286.63 408.072 216.431 406.07 146.577 411.222" fill="#B5B5B5"/>
<path d="M252.73 371.44V359.44C244.022 359.563 212.86 359.351 204.73 359.44C204.125 401.381 200.417 393.165 234.778 393.329C236.357 393.335 237.87 393.966 238.985 395.084C240.101 396.202 240.728 397.716 240.73 399.295V399.475C240.73 401.057 240.102 402.574 238.983 403.693C237.864 404.812 236.347 405.44 234.765 405.44H204.73V417.44H252.73C252.797 417.4 252.681 405.853 252.73 405.44C254.76 370.675 250.744 383.179 221.564 381.784C220.259 381.718 219.029 381.151 218.129 380.203C217.229 379.255 216.728 377.997 216.73 376.69V376.54C216.73 375.187 217.267 373.89 218.224 372.934C219.18 371.977 220.477 371.44 221.83 371.44H252.73Z" fill="black"/>
<path d="M311.73 371.44V359.44C303.022 359.563 271.859 359.351 263.73 359.44C263.12 401.746 259.352 393.019 294.682 393.335C296.026 393.349 297.309 393.892 298.255 394.847C299.2 395.802 299.73 397.091 299.73 398.434C299.73 399.065 299.73 399.71 299.73 400.342C299.73 401.011 299.598 401.674 299.342 402.293C299.085 402.912 298.71 403.474 298.236 403.947C297.763 404.421 297.2 404.796 296.582 405.052C295.963 405.308 295.3 405.44 294.63 405.44H263.73V417.44H311.73C311.797 417.4 311.681 405.853 311.73 405.44C313.76 370.675 309.744 383.179 280.564 381.784C279.259 381.718 278.029 381.151 277.129 380.203C276.229 379.255 275.728 377.997 275.73 376.69V376.54C275.73 375.187 276.267 373.89 277.224 372.934C278.18 371.977 279.477 371.44 280.83 371.44H311.73Z" fill="black"/>
<path d="M190.73 371.44V359.44H142.73C142.696 370.143 142.754 398.472 142.73 409.44C133.321 425.369 186.772 414.341 190.733 417.444C190.73 417.44 190.73 405.44 190.73 405.44C154.209 405.249 153.291 412.086 154.466 379.01C154.537 376.979 155.393 375.055 156.854 373.643C158.315 372.231 160.268 371.441 162.3 371.439C172.858 371.44 190.73 371.44 190.73 371.44Z" fill="black"/>
<path d="M285.607 267.112L234.89 265.776C227.856 265.591 219.946 265.6 214.929 268.63C209.234 272.07 210.097 278.163 214.824 282.115C219.552 286.067 227.101 288.325 234.511 290.161C273.875 299.913 317.439 301.893 359.74 299.687C402.04 297.48 443.47 291.241 484.695 285.024C488.605 284.434 493.037 283.585 494.631 281.317C496.174 279.123 494.155 276.477 491.02 275.059C487.885 273.641 483.911 273.163 480.077 272.741C410.512 265.131 340.425 263.464 270.577 267.759" fill="#B5B5B5"/>
<path d="M276.73 214.44C275.913 232.966 282.722 238.798 259.229 236.438C257.642 225.386 265.691 210.048 247.23 213.942C250.928 221.96 236.927 282.786 259.226 271.937C260.478 253.662 252.224 245.646 276.731 248.442C278.696 259.739 269.523 276.363 288.729 272.438C285.031 264.417 299.032 203.596 276.73 214.44Z" fill="black"/>
<path d="M399.73 214.44C401.377 215.457 384.639 233.164 384.278 234.615C383.776 233.376 367.801 216.052 369.73 214.441C347.5 203.456 361.355 264.635 357.726 272.443C357.73 272.44 369.73 272.44 369.73 272.44V234.442C386.597 257.192 383.465 253.363 399.73 233.325L399.73 272.44C421.959 283.429 408.106 222.241 411.734 214.437C411.73 214.44 399.73 214.44 399.73 214.44Z" fill="black"/>
<path d="M346.73 214.44H298.73C295.909 231.262 305.235 225.62 316.731 226.44L316.73 272.44H328.73V226.44C340.173 225.662 349.586 231.188 346.73 214.44Z" fill="black"/>
<path d="M433.73 260.44C430.958 245.232 430.958 229.648 433.73 214.44H421.73C421.799 222.043 421.708 252.722 421.716 266.752C421.715 268.266 422.316 269.718 423.386 270.79C424.456 271.861 425.907 272.463 427.421 272.464C439.511 272.48 462.591 272.391 469.73 272.44L469.73 260.44H433.73Z" fill="black"/>
<path d="M127.181 262.44H78.407C76.02 262.44 73.7308 263.388 72.043 265.076C70.3552 266.764 69.407 269.053 69.407 271.44C69.407 273.827 70.3552 276.116 72.043 277.804C73.7308 279.492 76.02 280.44 78.407 280.44H127.181C129.568 280.44 131.857 279.492 133.545 277.804C135.233 276.116 136.181 273.827 136.181 271.44C136.181 269.053 135.233 266.764 133.545 265.076C131.857 263.388 129.568 262.44 127.181 262.44H127.181Z" fill="#E6E6E6"/>
</svg>
