<svg width="1114" height="613" viewBox="0 0 1114 613" fill="none" xmlns="http://www.w3.org/2000/svg">
<path d="M928.902 96.25H476.902V189.25H928.902V96.25Z" stroke="#3F3D56" stroke-miterlimit="10"/>
<path d="M207.168 228.354C220.057 208.213 244.461 194.625 272.444 194.625C313.865 194.625 347.444 224.398 347.444 261.125C347.444 284.607 333.717 305.246 312.991 317.078" stroke="#3F3D56" stroke-miterlimit="10"/>
<path d="M896.902 114.25H444.902V207.25H896.902V114.25Z" fill="#3C3C3C"/>
<path d="M159.171 25.5001C163.037 25.5001 166.171 22.366 166.171 18.5C166.171 14.6339 163.037 11.4999 159.171 11.4999C155.305 11.4999 152.171 14.6339 152.171 18.5C152.171 22.366 155.305 25.5001 159.171 25.5001Z" fill="white"/>
<path d="M183.171 25.5001C187.037 25.5001 190.171 22.366 190.171 18.5C190.171 14.6339 187.037 11.4999 183.171 11.4999C179.305 11.4999 176.171 14.6339 176.171 18.5C176.171 22.366 179.305 25.5001 183.171 25.5001Z" fill="white"/>
<path d="M207.171 25.5001C211.037 25.5001 214.171 22.366 214.171 18.5C214.171 14.6339 211.037 11.4999 207.171 11.4999C203.305 11.4999 200.171 14.6339 200.171 18.5C200.171 22.366 203.305 25.5001 207.171 25.5001Z" fill="white"/>
<path d="M980.171 0.5H140.171V546.5H980.171V0.5Z" stroke="#3F3D56" stroke-miterlimit="10"/>
<path d="M140.171 30.8351H980.171" stroke="#3F3D56" stroke-miterlimit="10"/>
<path d="M161.171 22.5001C165.037 22.5001 168.171 19.366 168.171 15.5C168.171 11.6339 165.037 8.49988 161.171 8.49988C157.305 8.49988 154.171 11.6339 154.171 15.5C154.171 19.366 157.305 22.5001 161.171 22.5001Z" stroke="#3F3D56" stroke-miterlimit="10"/>
<path d="M185.171 22.5001C189.037 22.5001 192.171 19.366 192.171 15.5C192.171 11.6339 189.037 8.49988 185.171 8.49988C181.305 8.49988 178.171 11.6339 178.171 15.5C178.171 19.366 181.305 22.5001 185.171 22.5001Z" stroke="#3F3D56" stroke-miterlimit="10"/>
<path d="M209.171 22.5001C213.037 22.5001 216.171 19.366 216.171 15.5C216.171 11.6339 213.037 8.49988 209.171 8.49988C205.305 8.49988 202.171 11.6339 202.171 15.5C202.171 19.366 205.305 22.5001 209.171 22.5001Z" stroke="#3F3D56" stroke-miterlimit="10"/>
<path d="M32.2164 204.549C35.2785 203.194 37.9843 201.148 40.1204 198.569C42.2565 195.991 43.7646 192.952 44.5258 189.691C45.287 186.431 45.2805 183.038 44.5068 179.781C43.7331 176.523 42.2134 173.49 40.0674 170.92C37.9214 168.35 35.2078 166.313 32.1405 164.971C29.0732 163.628 25.736 163.017 22.392 163.184C19.0481 163.352 15.7886 164.293 12.8707 165.935C9.95273 167.577 7.45604 169.874 5.57738 172.646L13.6743 180.298L3.27208 177.065C1.22638 182.395 1.38038 188.319 3.70022 193.535C4.50605 195.369 5.56768 197.079 6.85344 198.615C9.86092 202.227 13.964 204.76 18.5407 205.831C23.1175 206.902 27.9186 206.452 32.2164 204.549Z" fill="#CACACA"/>
<path d="M140.39 279.604C132.495 274.064 132.494 262.435 134.455 252.993C136.416 243.55 139.41 233.248 134.958 224.693C128.56 212.398 111.743 211.658 97.9457 210.344C87.7074 209.368 77.621 207.181 67.8974 203.83C63.999 202.486 60.0951 200.917 56.9028 198.307C52.3054 194.548 49.6086 189.004 47.0904 183.626C38.7014 165.711 30.7384 147.603 23.2012 129.305" stroke="#3F3D56" stroke-miterlimit="10"/>
<path d="M30.8746 201.865C33.9367 200.511 36.6424 198.464 38.7786 195.886C40.9147 193.308 42.4228 190.269 43.184 187.008C43.9452 183.748 43.9387 180.355 43.165 177.097C42.3913 173.84 40.8715 170.807 38.7255 168.237C36.5795 165.667 33.866 163.63 30.7987 162.288C27.7314 160.945 24.3942 160.334 21.0502 160.501C17.7062 160.668 14.4468 161.61 11.5288 163.252C8.61093 164.894 6.11424 167.191 4.23559 169.963L12.3325 177.615L1.93029 174.382C-0.115414 179.712 0.0385783 185.635 2.35842 190.852C3.16425 192.685 4.22588 194.396 5.51165 195.931C8.51912 199.544 12.6221 202.077 17.1989 203.148C21.7756 204.219 26.5767 203.768 30.8746 201.865Z" stroke="#3F3D56" stroke-miterlimit="10"/>
<path d="M4.52465 141.909C3.05562 138.596 2.44409 134.967 2.74641 131.355C3.04872 127.744 4.25516 124.266 6.25456 121.243L14.865 127.641L9.55089 117.342C12.9033 114.217 17.1618 112.239 21.7117 111.692C26.2616 111.146 30.8674 112.06 34.8642 114.302C38.861 116.544 42.0419 119.998 43.9477 124.165C45.8535 128.333 46.3855 132.998 45.467 137.488C44.5485 141.977 42.227 146.059 38.8376 149.143C35.4482 152.227 31.1664 154.154 26.6103 154.646C22.0542 155.138 17.4596 154.17 13.4898 151.881C9.52004 149.591 6.38057 146.099 4.52465 141.909Z" fill="#CACACA"/>
<path d="M2.73557 138.332C1.26655 135.019 0.655029 131.389 0.957346 127.778C1.25966 124.166 2.4661 120.689 4.46548 117.666L13.0759 124.064L7.76184 113.764C11.1142 110.64 15.3727 108.661 19.9226 108.115C24.4726 107.569 29.0784 108.482 33.0752 110.724C37.0719 112.966 40.2529 116.42 42.1586 120.588C44.0644 124.755 44.5965 129.42 43.678 133.91C42.7595 138.4 40.4379 142.481 37.0486 145.565C33.6592 148.65 29.3773 150.577 24.8212 151.069C20.2651 151.561 15.6705 150.592 11.7008 148.303C7.731 146.014 4.59153 142.522 2.73561 138.332H2.73557Z" stroke="#3F3D56" stroke-miterlimit="10"/>
<path d="M95.3567 213.127C100.21 210.977 104.103 207.115 106.292 202.28C108.482 197.444 108.815 191.971 107.229 186.905C105.643 181.839 102.249 177.534 97.6923 174.81C93.136 172.086 87.7366 171.134 82.5233 172.135L86.6072 180.05L77.8974 173.574C77.8787 173.581 77.8606 173.588 77.8432 173.597C75.2477 174.747 72.904 176.397 70.9461 178.453C68.9882 180.509 67.4544 182.93 66.4322 185.578C64.3677 190.927 64.5127 196.877 66.8351 202.119C69.1575 207.361 73.4672 211.466 78.816 213.53C84.1649 215.594 90.1147 215.449 95.3567 213.127Z" fill="#CACACA"/>
<path d="M93.4191 209.624C98.2726 207.473 102.165 203.612 104.354 198.776C106.544 193.94 106.878 188.468 105.292 183.402C103.706 178.336 100.311 174.03 95.7547 171.306C91.1984 168.582 85.799 167.63 80.5858 168.631L84.6696 176.546L75.9598 170.071C75.9412 170.077 75.923 170.085 75.9056 170.094C73.3091 171.243 70.9644 172.893 69.0056 174.949C67.0467 177.004 65.512 179.426 64.4891 182.075C63.4663 184.723 62.9753 187.548 63.0442 190.387C63.1131 193.225 63.7406 196.022 64.8908 198.619C66.041 201.215 67.6914 203.559 69.7477 205.517C71.804 207.475 74.2259 209.009 76.8752 210.031C79.5244 211.053 82.349 211.543 85.1877 211.473C88.0263 211.403 90.8234 210.775 93.4191 209.624Z" stroke="#3F3D56" stroke-miterlimit="10"/>
<path d="M103.986 254.613C107.987 257.54 112.872 259.003 117.823 258.756C122.774 258.51 127.49 256.568 131.179 253.257C134.869 249.946 137.307 245.467 138.087 240.572C138.866 235.676 137.938 230.662 135.458 226.369C132.979 222.076 129.099 218.767 124.469 216.995C119.84 215.224 114.741 215.098 110.03 216.639C105.318 218.18 101.28 221.294 98.5923 225.46C95.9044 229.625 94.7304 234.588 95.2672 239.516L112.256 243.302L97.433 246.867C98.9655 249.936 101.213 252.593 103.986 254.613Z" fill="#CACACA"/>
<path d="M102.645 251.929C106.645 254.857 111.53 256.32 116.481 256.073C121.432 255.827 126.148 253.885 129.837 250.574C133.527 247.263 135.965 242.784 136.745 237.889C137.524 232.993 136.596 227.978 134.117 223.686C131.637 219.393 127.757 216.083 123.128 214.312C118.498 212.54 113.4 212.415 108.688 213.956C103.976 215.497 99.9382 218.611 97.2503 222.776C94.5624 226.942 93.3884 231.904 93.9252 236.832L110.914 240.619L96.091 244.184C97.6235 247.253 99.8712 249.91 102.645 251.929Z" stroke="#3F3D56" stroke-miterlimit="10"/>
<path d="M1041.56 458.39C1044.4 459.905 1047.56 460.739 1050.78 460.825C1054 460.911 1057.2 460.248 1060.12 458.887C1063.05 457.527 1065.61 455.506 1067.62 452.985C1069.63 450.463 1071.02 447.51 1071.69 444.357C1072.37 441.205 1072.3 437.939 1071.49 434.818C1070.69 431.698 1069.17 428.806 1067.05 426.373C1064.94 423.939 1062.29 422.03 1059.31 420.795C1056.33 419.56 1053.11 419.034 1049.9 419.257L1048.91 429.937L1045.18 420.137C1039.93 421.754 1035.53 425.39 1032.96 430.246C1032.05 431.946 1031.38 433.766 1030.98 435.653C1030.03 440.077 1030.55 444.69 1032.46 448.793C1034.37 452.896 1037.56 456.265 1041.56 458.39Z" fill="#CACACA"/>
<path d="M1048.97 584.922C1048.48 575.651 1057.29 568.741 1065.6 564.616C1073.92 560.491 1083.5 556.638 1087.34 548.183C1092.85 536.032 1083.42 522.854 1076.22 511.622C1070.87 503.287 1066.54 494.347 1063.3 484.991C1062 481.24 1060.87 477.35 1060.95 473.381C1061.07 467.665 1063.66 462.329 1066.24 457.226C1074.83 440.228 1083.81 423.438 1093.2 406.857" stroke="#3F3D56" stroke-miterlimit="10"/>
<path d="M1042.79 455.78C1045.64 457.295 1048.79 458.128 1052.02 458.214C1055.24 458.301 1058.44 457.637 1061.36 456.277C1064.28 454.916 1066.85 452.895 1068.86 450.374C1070.86 447.853 1072.26 444.899 1072.93 441.747C1073.6 438.594 1073.53 435.329 1072.73 432.208C1071.92 429.087 1070.4 426.196 1068.29 423.762C1066.17 421.329 1063.52 419.419 1060.55 418.184C1057.57 416.95 1054.35 416.423 1051.13 416.647L1050.14 427.326L1046.41 417.526C1041.16 419.143 1036.77 422.779 1034.19 427.636C1033.28 429.335 1032.62 431.156 1032.22 433.042C1031.27 437.466 1031.79 442.08 1033.7 446.183C1035.6 450.286 1038.8 453.655 1042.79 455.78Z" stroke="#3F3D56" stroke-miterlimit="10"/>
<path d="M1072.55 400.199C1074.19 397.117 1076.57 394.498 1079.49 392.581C1082.41 390.664 1085.76 389.512 1089.23 389.231L1089.5 399.554L1094.15 389.409C1098.51 390.092 1102.54 392.143 1105.65 395.265C1108.77 398.387 1110.81 402.418 1111.49 406.778C1112.17 411.137 1111.44 415.599 1109.42 419.518C1107.39 423.438 1104.17 426.613 1100.23 428.585C1096.28 430.556 1091.81 431.223 1087.46 430.488C1083.11 429.753 1079.11 427.654 1076.03 424.495C1072.95 421.337 1070.95 417.281 1070.33 412.914C1069.7 408.546 1070.48 404.094 1072.55 400.199Z" fill="#CACACA"/>
<path d="M1074.2 396.718C1075.84 393.637 1078.22 391.017 1081.14 389.1C1084.05 387.184 1087.4 386.031 1090.88 385.75L1091.15 396.073L1095.8 385.929C1100.15 386.612 1104.18 388.662 1107.3 391.784C1110.42 394.906 1112.46 398.937 1113.14 403.297C1113.81 407.656 1113.09 412.118 1111.06 416.038C1109.04 419.957 1105.82 423.132 1101.87 425.104C1097.93 427.075 1093.46 427.742 1089.11 427.007C1084.76 426.272 1080.75 424.173 1077.67 421.015C1074.59 417.856 1072.6 413.8 1071.97 409.433C1071.35 405.066 1072.13 400.613 1074.2 396.718Z" stroke="#3F3D56" stroke-miterlimit="10"/>
<path d="M1072.57 511.314C1077.08 513.713 1082.32 514.368 1087.29 513.153C1092.25 511.939 1096.59 508.94 1099.49 504.729C1102.38 500.517 1103.63 495.388 1102.98 490.318C1102.34 485.248 1099.85 480.593 1096 477.239L1092.43 485.035L1092.16 474.59C1092.14 474.58 1092.13 474.57 1092.11 474.563C1089.7 473.278 1087.05 472.481 1084.33 472.218C1081.61 471.955 1078.86 472.23 1076.25 473.029C1073.63 473.828 1071.2 475.134 1069.09 476.873C1066.98 478.612 1065.24 480.749 1063.95 483.163C1062.67 485.578 1061.87 488.221 1061.61 490.942C1061.35 493.664 1061.63 496.41 1062.43 499.025C1063.23 501.639 1064.54 504.07 1066.28 506.179C1068.02 508.287 1070.16 510.033 1072.57 511.314Z" fill="#CACACA"/>
<path d="M1074.07 507.765C1078.59 510.164 1083.82 510.819 1088.79 509.604C1093.75 508.389 1098.1 505.391 1100.99 501.179C1103.89 496.968 1105.13 491.839 1104.49 486.769C1103.84 481.699 1101.36 477.044 1097.5 473.69L1093.93 481.486L1093.66 471.041C1093.65 471.03 1093.63 471.021 1093.61 471.014C1091.2 469.729 1088.56 468.933 1085.84 468.67C1083.11 468.407 1080.37 468.683 1077.75 469.482C1075.14 470.281 1072.71 471.587 1070.6 473.326C1068.49 475.065 1066.74 477.202 1065.46 479.616C1064.18 482.03 1063.38 484.673 1063.12 487.394C1062.86 490.115 1063.13 492.861 1063.93 495.475C1064.73 498.09 1066.04 500.52 1067.78 502.629C1069.52 504.738 1071.66 506.483 1074.07 507.765Z" stroke="#3F3D56" stroke-miterlimit="10"/>
<path d="M1046.27 542.499C1046.43 547.269 1048.23 551.838 1051.36 555.442C1054.48 559.046 1058.76 561.464 1063.46 562.292C1068.16 563.119 1073 562.306 1077.17 559.987C1081.34 557.669 1084.59 553.987 1086.37 549.558C1088.15 545.13 1088.35 540.224 1086.94 535.665C1085.53 531.105 1082.6 527.169 1078.63 524.516C1074.66 521.862 1069.9 520.654 1065.15 521.092C1060.4 521.531 1055.94 523.59 1052.53 526.925L1059.75 542.043L1048.25 532.933C1046.83 535.917 1046.16 539.198 1046.27 542.499Z" fill="#CACACA"/>
<path d="M1047.51 539.888C1047.67 544.658 1049.46 549.228 1052.59 552.832C1055.72 556.435 1059.99 558.854 1064.69 559.681C1069.39 560.509 1074.23 559.695 1078.41 557.377C1082.58 555.058 1085.82 551.376 1087.6 546.948C1089.38 542.519 1089.58 537.614 1088.17 533.054C1086.77 528.495 1083.83 524.558 1079.86 521.905C1075.9 519.252 1071.14 518.043 1066.39 518.482C1061.64 518.92 1057.18 520.98 1053.76 524.314L1060.99 539.432L1049.48 530.322C1048.07 533.307 1047.39 536.588 1047.51 539.888Z" stroke="#3F3D56" stroke-miterlimit="10"/>
<path d="M115.216 118.549C118.279 117.194 120.984 115.148 123.12 112.569C125.257 109.991 126.765 106.952 127.526 103.691C128.287 100.431 128.28 97.0382 127.507 93.7806C126.733 90.5231 125.213 87.4897 123.067 84.9197C120.921 82.3497 118.208 80.3132 115.14 78.9708C112.073 77.6284 108.736 77.0168 105.392 77.1842C102.048 77.3516 98.7888 78.2934 95.8709 79.9353C92.9529 81.5772 90.4562 83.8745 88.5776 86.6459L96.6745 94.2979L86.2723 91.065C84.2266 96.3947 84.3806 102.319 86.7004 107.535C87.5063 109.369 88.5679 111.079 89.8536 112.615C92.8611 116.227 96.9641 118.76 101.541 119.831C106.117 120.902 110.919 120.452 115.216 118.549Z" fill="#CACACA"/>
<path d="M139.903 112.307C135.305 108.548 132.609 103.004 130.09 97.6263C121.701 79.7105 113.738 61.6034 106.201 43.305" stroke="#3F3D56" stroke-miterlimit="10"/>
<path d="M113.874 115.865C116.937 114.511 119.642 112.464 121.778 109.886C123.915 107.308 125.423 104.269 126.184 101.008C126.945 97.7478 126.939 94.355 126.165 91.0975C125.391 87.8399 123.871 84.8066 121.725 82.2365C119.579 79.6665 116.866 77.6301 113.799 76.2877C110.731 74.9453 107.394 74.3337 104.05 74.501C100.706 74.6684 97.4468 75.6102 94.5288 77.2521C91.6109 78.8941 89.1142 81.1913 87.2355 83.9628L95.3324 91.6147L84.9303 88.3819C82.8846 93.7116 83.0386 99.6355 85.3584 104.852C86.1642 106.685 87.2259 108.396 88.5116 109.931C91.5191 113.544 95.6221 116.077 100.199 117.148C104.776 118.219 109.577 117.768 113.874 115.865Z" stroke="#3F3D56" stroke-miterlimit="10"/>
<path d="M87.5246 55.9094C86.0556 52.5963 85.4441 48.9668 85.7464 45.3552C86.0487 41.7437 87.2552 38.2663 89.2545 35.2435L97.865 41.6415L92.5509 31.3416C95.9032 28.2172 100.162 26.239 104.712 25.6926C109.261 25.1462 113.867 26.0599 117.864 28.3017C121.861 30.5436 125.042 33.9976 126.948 38.1651C128.853 42.3327 129.385 46.998 128.467 51.4876C127.548 55.9772 125.227 60.0587 121.837 63.1429C118.448 66.2271 114.166 68.1544 109.61 68.6465C105.054 69.1385 100.459 68.17 96.4898 65.8806C92.52 63.5912 89.3806 60.0994 87.5246 55.9095V55.9094Z" fill="#CACACA"/>
<path d="M85.7356 52.3319C84.2666 49.0188 83.655 45.3892 83.9574 41.7776C84.2597 38.1661 85.4661 34.6887 87.4655 31.6659L96.0759 38.0639L90.7619 27.764C94.1142 24.6396 98.3728 22.6614 102.922 22.115C107.472 21.5686 112.078 22.4823 116.075 24.7241C120.072 26.966 123.253 30.42 125.158 34.5875C127.064 38.755 127.596 43.4204 126.678 47.91C125.759 52.3996 123.438 56.4811 120.048 59.5653C116.659 62.6496 112.377 64.5768 107.821 65.0689C103.265 65.561 98.6705 64.5924 94.7008 62.303C90.731 60.0136 87.5916 56.5218 85.7356 52.3319Z" stroke="#3F3D56" stroke-miterlimit="10"/>
<path d="M403.898 30.8351V547.276" stroke="#3F3D56" stroke-miterlimit="10"/>
<path d="M645.402 284.75H498.402V304.75H645.402V284.75Z" fill="white"/>
<path d="M876.402 284.75H729.402V304.75H876.402V284.75Z" fill="white"/>
<path d="M653.402 274.75H506.402V294.75H653.402V274.75Z" stroke="#3F3D56" stroke-miterlimit="10"/>
<path d="M645.402 439.75H498.402V459.75H645.402V439.75Z" fill="white"/>
<path d="M653.402 429.75H506.402V449.75H653.402V429.75Z" stroke="#3F3D56" stroke-miterlimit="10"/>
<path d="M876.902 360.25H498.902V380.25H876.902V360.25Z" fill="white"/>
<path d="M884.902 352.25H506.902V372.25H884.902V352.25Z" stroke="#3F3D56" stroke-miterlimit="10"/>
<path d="M884.402 274.75H737.402V294.75H884.402V274.75Z" stroke="#3F3D56" stroke-miterlimit="10"/>
<path d="M1023.14 564.721C1023.74 564.721 1024.23 564.233 1024.23 563.631C1024.23 563.029 1023.74 562.54 1023.14 562.54C1022.54 562.54 1022.05 563.029 1022.05 563.631C1022.05 564.233 1022.54 564.721 1023.14 564.721Z" fill="#F2F2F2"/>
<path d="M1019.38 572.112C1019.98 572.112 1020.47 571.624 1020.47 571.022C1020.47 570.419 1019.98 569.931 1019.38 569.931C1018.78 569.931 1018.29 570.419 1018.29 571.022C1018.29 571.624 1018.78 572.112 1019.38 572.112Z" fill="#F2F2F2"/>
<path d="M1009.86 570.831C1010.46 570.831 1010.95 570.342 1010.95 569.74C1010.95 569.138 1010.46 568.65 1009.86 568.65C1009.26 568.65 1008.77 569.138 1008.77 569.74C1008.77 570.342 1009.26 570.831 1009.86 570.831Z" fill="#F2F2F2"/>
<path d="M1018.29 576.168C1018.89 576.168 1019.38 575.68 1019.38 575.077C1019.38 574.475 1018.89 573.987 1018.29 573.987C1017.69 573.987 1017.2 574.475 1017.2 575.077C1017.2 575.68 1017.69 576.168 1018.29 576.168Z" fill="#F2F2F2"/>
<path d="M920.909 588.687C921.511 588.687 922 588.199 922 587.597C922 586.995 921.511 586.506 920.909 586.506C920.307 586.506 919.819 586.995 919.819 587.597C919.819 588.199 920.307 588.687 920.909 588.687Z" fill="#F2F2F2"/>
<path d="M914.664 591.741C915.266 591.741 915.754 591.253 915.754 590.65C915.754 590.048 915.266 589.56 914.664 589.56C914.062 589.56 913.573 590.048 913.573 590.65C913.573 591.253 914.062 591.741 914.664 591.741Z" fill="#F2F2F2"/>
<path d="M918.021 590.177C918.623 590.177 919.112 589.689 919.112 589.086C919.112 588.484 918.623 587.996 918.021 587.996C917.419 587.996 916.931 588.484 916.931 589.086C916.931 589.689 917.419 590.177 918.021 590.177Z" fill="#F2F2F2"/>
<path d="M911.15 593.54C911.752 593.54 912.24 593.052 912.24 592.45C912.24 591.847 911.752 591.359 911.15 591.359C910.547 591.359 910.059 591.847 910.059 592.45C910.059 593.052 910.547 593.54 911.15 593.54Z" fill="#F2F2F2"/>
<path opacity="0.1" d="M934.758 484.22C934.758 484.22 922.545 493.271 919.164 493.925C915.784 494.579 934.758 484.22 934.758 484.22Z" fill="black"/>
<path opacity="0.1" d="M924.588 322.633C924.588 322.633 929.85 320.503 932.941 320.976L924.588 322.633Z" fill="black"/>
<path d="M880.402 611.75L1080.4 580.75" stroke="#3F3D56" stroke-miterlimit="10"/>
<path d="M181.31 275.123C181.31 301.255 198.479 323.836 223.374 334.539L187.772 248.256C183.536 256.579 181.322 265.784 181.31 275.123ZM306.329 271.792C306.329 263.633 303.016 257.983 300.174 253.585C296.391 248.147 292.846 243.542 292.846 238.104C292.846 232.035 298.048 226.386 305.378 226.386C305.709 226.386 306.023 226.423 306.346 226.439C292.022 215.069 274.233 208.953 255.945 209.109C229.871 209.109 206.931 220.942 193.586 238.865C195.337 238.911 196.989 238.943 198.389 238.943C206.196 238.943 218.28 238.105 218.28 238.105C222.303 237.895 222.777 243.122 218.76 243.543C218.76 243.543 214.715 243.964 210.216 244.172L237.395 315.68L253.73 272.351L242.1 244.171C238.081 243.962 234.274 243.542 234.274 243.542C230.252 243.333 230.723 237.894 234.745 238.104C234.745 238.104 247.071 238.942 254.404 238.942C262.209 238.942 274.295 238.104 274.295 238.104C278.321 237.894 278.794 243.121 274.774 243.542C274.774 243.542 270.722 243.962 266.231 244.171L293.203 315.137L300.646 293.133C303.874 284.002 306.329 277.443 306.329 271.792Z" fill="#020202"/>
<path d="M257.255 280.898L234.862 338.453C249.952 342.368 265.835 342.004 280.73 337.402C280.523 337.116 280.345 336.812 280.198 336.492L257.255 280.898ZM321.434 243.45C321.773 245.697 321.941 247.966 321.937 250.238C321.937 256.938 320.522 264.468 316.262 273.885L293.464 332.187C315.653 320.742 330.577 299.479 330.577 275.123C330.558 263.917 327.39 252.942 321.434 243.45Z" fill="#090909"/>
</svg>
